<?xml version="1.0" encoding="UTF-8"?>
<svg id="Layer_2" xmlns="http://www.w3.org/2000/svg" viewBox="0 0 290.94 113.24">
  <g id="Layer_1-2" data-name="Layer_1">
    <g>
      <g>
        <path d="M0,4.82h7.76v45.65H0V4.82ZM11.95,23.63L26.35,4.82h9.44l-22.09,28.87-4.05-2.87c0-.91.07-3.98,2.31-7.2ZM18.45,36.91c-.14-2.66,1.26-7.62,2.8-10.21l16.15,23.77h-10.14l-8.81-13.56Z"/>
        <path d="M41.52,0h8.95l-.49,7.2h-8.11l-.35-7.2ZM42.15,12.44h7.62v38.03h-7.62V12.44Z"/>
        <path d="M56.27,12.93l6.01-.49,1.4-7.69h5.59v7.69h11.88v6.01h-24.88v-5.52ZM64.66,49.21c-2.45-1.82-2.94-6.71-2.94-9.93v-15.03c1.4-1.26,5.1-3.49,7.62-4.4v18.24c0,2.94.35,4.47,1.19,5.1.84.77,2.8,1.19,4.75,1.19,1.75,0,4.75-.21,6.36-.42l.07,6.22c-1.82.63-5.17,1.05-7.62,1.05-3.01,0-7.27-.49-9.44-2.03Z"/>
        <path d="M84.65,12.93l6.01-.49,1.4-7.69h5.59v7.69h11.88v6.01h-24.88v-5.52ZM93.04,49.21c-2.45-1.82-2.94-6.71-2.94-9.93v-15.03c1.4-1.26,5.1-3.49,7.62-4.4v18.24c0,2.94.35,4.47,1.19,5.1.84.77,2.8,1.19,4.75,1.19,1.75,0,4.75-.21,6.36-.42l.07,6.22c-1.82.63-5.17,1.05-7.62,1.05-3.01,0-7.27-.49-9.44-2.03Z"/>
        <path d="M121.98,42.85l-9.16-30.41h7.97l9.16,32.78c-2.8-.07-6.08-1.05-7.97-2.38ZM120.09,63.82l9.58-9.72,11.25-41.66h8.11l-13,45.92-12.02,9.79-3.91-4.33Z"/>
        <path d="M153.15,16.5l1.54-6.29V2.66h7.13v3.08c0,2.87-.98,4.89-1.54,6.36l-2.38,5.73-4.75-1.33Z"/>
        <path d="M187.83,41.17c.28-.63.56-1.54.56-2.03,0-1.75-1.12-2.38-6.64-4.05l-5.66-1.75c-7.27-2.17-9.86-4.12-9.86-10.28,0-4.54,2.38-7.97,3.77-8.46.98,1.47,2.8,4.82,3.63,6.85-.14.35-.21.98-.21,1.19,0,1.61.91,2.45,5.24,3.77l5.8,1.82c9.02,2.73,11.11,4.75,11.11,10.28,0,5.03-2.17,8.11-3.98,8.81-1.26-1.4-3.01-4.47-3.77-6.15ZM167,49.7v-6.29c3.36.91,8.46,1.61,11.95,1.61,3.22,0,6.85-.56,8.95-1.4-.21,1.05-1.4,4.89-3.15,6.85-1.47.35-4.61.77-7.13.77-3.7,0-7.76-.56-10.62-1.54ZM177.41,12.23c1.47-.42,3.77-.56,5.66-.56,2.52,0,7.55.35,10.42,1.05v6.29c-2.73-.63-7.9-1.12-11.53-1.12-2.31,0-6.01.21-7.69.98.49-2.17,1.96-5.31,3.15-6.64Z"/>
      </g>
      <g>
        <path d="M185.26,93.76v17.89h-3.9c-.45-1.9-1.11-3.42-2-4.57-3.96,3.98-9.19,5.98-15.68,5.98-7.38,0-13.29-2.41-17.72-7.24-4.43-4.83-6.64-10.56-6.64-17.19s2.19-12.35,6.57-17.44c4.38-5.09,10.44-7.63,18.18-7.63,5.79,0,10.7,1.91,14.73,5.73.54-1.2,1.03-2.61,1.48-4.25h3.87l.49,17.61h-3.87c-1.15-4.78-3.03-8.4-5.64-10.85-2.61-2.45-5.71-3.67-9.3-3.67-4.13,0-7.23,1.62-9.32,4.85-2.09,3.23-3.13,8.29-3.13,15.15,0,4.83.37,8.65,1.12,11.48.75,2.82,2.23,5,4.45,6.52,2.21,1.52,4.63,2.29,7.26,2.29,3.47,0,6.56-1.21,9.28-3.62,2.72-2.41,4.68-6.09,5.87-11.04h3.9Z"/>
        <path d="M212.76,109.02c-1.71,1.24-3.5,2.17-5.36,2.79s-3.81.93-5.85.93c-2.7,0-4.72-.61-6.06-1.83-1.35-1.22-2.02-2.73-2.02-4.54,0-2.55,1.35-4.82,4.04-6.79,2.69-1.97,7.57-4.15,14.62-6.54v-2.6c0-1.85-.45-3.04-1.34-3.57-.89-.53-1.95-.79-3.16-.79-2.95,0-4.59,1.08-4.92,3.23-.23,1.48-.7,2.55-1.41,3.22s-1.79,1-3.27,1c-1.34,0-2.4-.36-3.18-1.07-.79-.71-1.18-1.55-1.18-2.51,0-2.18,1.44-4.03,4.32-5.55,2.88-1.52,6.74-2.29,11.57-2.29,2.69,0,4.95.16,6.77.49,1.82.33,3.28.94,4.39,1.83,1.11.89,1.85,1.83,2.21,2.81.36.98.54,2.32.54,4.01v13.36c0,2.02.61,3.02,1.83,3.02,1.05,0,1.72-.66,2-1.97h2.92c-.07,2.41-.96,4.2-2.65,5.34-1.7,1.15-3.73,1.72-6.1,1.72-4.31,0-7.22-1.24-8.72-3.73ZM212.12,105.22v-8.23c-3.26,1.36-5.38,2.59-6.38,3.69-1,1.1-1.49,2.24-1.49,3.41,0,.89.29,1.69.88,2.41.59.72,1.36,1.07,2.32,1.07.84,0,1.65-.2,2.43-.6.77-.4,1.52-.98,2.25-1.76Z"/>
        <path d="M248.72,87.08v16.59c0,1.73.27,2.95.81,3.64.54.69,1.78,1.04,3.73,1.04h1.86v3.73h-23.55v-3.73h1.23c1.99,0,3.25-.35,3.76-1.05.52-.7.77-1.91.77-3.62v-16.59h-5.77v-3.8h5.77c0-3.75.14-6.59.42-8.51.28-1.92,1.05-3.76,2.32-5.5,1.27-1.75,3.05-3.14,5.34-4.18,2.3-1.04,5.05-1.56,8.26-1.56,3.7,0,6.5.63,8.4,1.9s2.85,2.88,2.85,4.85c0,1.38-.51,2.58-1.53,3.6s-2.24,1.53-3.67,1.53c-2.77,0-4.59-1.76-5.48-5.27-.42-1.73-1.28-2.6-2.57-2.6-1.05,0-1.81.54-2.27,1.62-.46,1.08-.69,2.94-.69,5.59v8.54h6.4v3.8h-6.4Z"/>
        <path d="M271.33,97.35c0,3.82.65,6.69,1.95,8.61,1.3,1.92,3.25,2.88,5.85,2.88,2.77,0,5.31-1.41,7.63-4.22l3.27,1.97c-1.34,1.92-3.25,3.51-5.75,4.76s-5.26,1.88-8.28,1.88c-4.64,0-8.61-1.41-11.92-4.24-3.3-2.82-4.96-6.64-4.96-11.44s1.6-8.58,4.8-11.32,7.05-4.11,11.55-4.11,8.23,1.26,11.13,3.78c2.89,2.52,4.34,6.33,4.34,11.44h-19.62ZM271.29,93.8h8.89c-.14-5.18-1.65-7.77-4.54-7.77-1.45,0-2.54.65-3.27,1.93-.73,1.29-1.09,3.23-1.09,5.84Z"/>
      </g>
    </g>
  </g>
</svg>